<?xml version="1.0" standalone="no"?>
<!DOCTYPE svg PUBLIC "-//W3C//DTD SVG 20010904//EN"
 "http://www.w3.org/TR/2001/REC-SVG-20010904/DTD/svg10.dtd">
<svg version="1.0" xmlns="http://www.w3.org/2000/svg"
 width="260.000000pt" height="260.000000pt" viewBox="0 0 260.000000 260.000000"
 preserveAspectRatio="xMidYMid meet">
<metadata>
Created by potrace 1.11, written by Peter Selinger 2001-2013
</metadata>
<g transform="translate(0.000000,260.000000) scale(0.100000,-0.100000)"
fill="#000000" stroke="none">
<path d="M1361 2041 c-9 -15 -6 -22 13 -34 35 -23 116 -109 116 -123 0 -7 4
-14 9 -16 6 -1 28 -42 49 -89 35 -75 43 -86 63 -84 13 1 25 3 26 4 5 3 -54
130 -82 176 -40 67 -61 92 -119 143 -55 48 -61 49 -75 23z"/>
<path d="M1015 1955 c-14 -13 -25 -30 -26 -37 -2 -27 3 -64 13 -83 10 -19 143
-199 163 -221 6 -6 31 -39 55 -73 25 -34 53 -72 63 -83 9 -12 17 -28 17 -37
-1 -16 -30 13 -120 119 -25 29 -59 69 -76 89 -17 20 -73 85 -124 144 -114 134
-158 158 -217 116 -60 -42 -41 -132 47 -219 14 -14 52 -57 85 -95 33 -39 62
-72 65 -75 3 -3 32 -36 65 -74 33 -38 77 -88 98 -110 46 -49 63 -76 46 -76
-12 0 -115 103 -252 253 -89 97 -143 140 -181 143 -65 4 -113 -52 -93 -110 5
-17 16 -39 23 -49 9 -14 360 -381 420 -439 4 -5 1 -8 -7 -8 -8 0 -37 22 -65
48 -195 182 -208 192 -259 194 -30 1 -43 -4 -62 -26 -27 -32 -29 -56 -7 -98
17 -33 28 -45 160 -164 49 -45 101 -93 115 -105 14 -13 56 -51 94 -84 37 -33
73 -64 79 -70 67 -59 174 -138 191 -141 5 -1 28 -9 50 -17 60 -22 158 -14 230
18 59 26 157 95 204 145 46 48 94 132 109 190 8 29 7 206 -1 265 -14 107 -20
141 -26 158 -7 20 9 152 19 152 1 0 3 7 5 15 1 8 19 50 40 93 l38 78 -23 25
c-49 51 -136 49 -203 -7 -44 -36 -66 -83 -72 -154 -15 -164 -100 -171 -220
-18 -33 41 -65 81 -70 87 -6 6 -26 34 -45 61 -19 28 -37 52 -40 55 -3 3 -34
44 -68 92 -109 152 -179 192 -237 133z"/>
<path d="M1294 1946 c-3 -8 18 -37 51 -69 50 -51 115 -160 115 -194 0 -7 11
-13 25 -13 14 0 25 1 25 3 -1 15 -30 91 -48 125 -25 47 -132 162 -151 162 -6
0 -14 -6 -17 -14z"/>
<path d="M583 1104 c-17 -7 43 -105 97 -160 24 -25 65 -58 92 -74 45 -28 48
-28 57 -11 9 15 2 23 -39 50 -54 35 -140 125 -140 147 0 8 -4 14 -9 14 -5 0
-13 9 -16 20 -6 20 -18 23 -42 14z"/>
<path d="M467 1061 c-16 -6 -12 -15 31 -81 79 -119 196 -226 253 -232 45 -5
33 28 -24 65 -29 20 -67 48 -83 64 -35 32 -108 130 -117 155 -8 22 -38 37 -60
29z"/>
</g>
</svg>
